<svg width="96" height="96" viewBox="0 0 96 96" fill="none" xmlns="http://www.w3.org/2000/svg">
  <rect width="96" height="96" rx="24" fill="#252525"/>
  <circle cx="48" cy="44" r="26" fill="#3A9828"/>
  <path d="M48 66V46L38 36M48 46L58 34M48 54L40 45M48 54L56 43M48 41L44 33M48 41L52 31M48 36C47 30 47.4 25 48 20C48.6 25 49 30 48 36Z" stroke="white" stroke-width="3" stroke-linecap="round" stroke-linejoin="round"/>
  <path d="M18 70C16 78 21 82 27 83" stroke="#8B1A3C" stroke-width="4" stroke-linecap="round"/>
  <path d="M27 83C40 88 56 88 69 83" stroke="#8B1A3C" stroke-width="4" stroke-linecap="round"/>
</svg>

